<!-- Generated by IcoMoon.io -->
<svg version="1.1" xmlns="http://www.w3.org/2000/svg" width="40" height="32" viewBox="0 0 40 32">
<title>car</title>
<path fill="#fff" d="M40.003 7.070v0l-5.656 12.544c-0.282 0.626-0.884 1.063-1.592 1.104l-0.005 0-16.238 1.083 0.935 2.684h17.698c2.078 0 3.763 1.685 3.763 3.763s-1.685 3.763-3.763 3.763c-2.078 0-3.762-1.683-3.763-3.761v-0h-17.561c-0.001 2.077-1.686 3.761-3.763 3.761s-3.763-1.685-3.763-3.763 1.685-3.763 3.763-3.763h3.398l-7.253-20.697h-4.31c-1.039 0-1.882-0.842-1.882-1.882s0.842-1.882 1.882-1.882h5.656c0.816 0.006 1.51 0.525 1.775 1.25l0.004 0.013 1.095 3.131h27.847c0.003 0 0.006-0 0.009-0 1.040 0 1.883 0.842 1.884 1.881v0c-0.006 0.278-0.064 0.542-0.165 0.783l0.005-0.014zM11.745 8.181l3.467 9.937 16.17-1.079 3.991-8.858h-23.628z"></path>
</svg>
